<svg version="1.1" id="Layer_1" xmlns="http://www.w3.org/2000/svg" xmlns:xlink="http://www.w3.org/1999/xlink" x="0px" y="0px"
	 width="100%" viewBox="0 0 432 432" enable-background="new 0 0 432 432" xml:space="preserve">
<path fill="#000000" opacity="1.000000" stroke="none" 
	d="
M291.000000,433.000000 
	C194.000015,433.000000 97.500023,433.000000 1.000026,433.000000 
	C1.000017,289.000031 1.000017,145.000061 1.000009,1.000065 
	C144.999954,1.000043 288.999908,1.000043 432.999878,1.000021 
	C432.999939,144.999939 432.999939,288.999878 432.999969,432.999908 
	C385.833344,433.000000 338.666656,433.000000 291.000000,433.000000 
M172.227631,262.291962 
	C176.747284,259.786285 181.295776,257.331024 185.780655,254.764572 
	C195.460144,249.225571 205.083252,243.587448 214.799225,238.113754 
	C215.924713,237.479691 217.860840,236.979660 218.797913,237.512848 
	C231.748566,244.881622 244.579468,252.460510 257.462952,259.947937 
	C263.587646,263.507385 269.761597,266.982117 276.086487,270.594177 
	C279.643738,264.176697 283.055725,258.340515 286.066620,252.304260 
	C286.629059,251.176682 286.123047,248.477280 285.186432,247.820541 
	C281.104523,244.958298 276.700165,242.550476 272.379242,240.035507 
	C256.638916,230.873978 240.866089,221.768066 225.147736,212.569077 
	C220.390030,209.784683 216.117294,208.021149 210.547119,211.627914 
	C201.874817,217.243378 192.568909,221.871674 183.620834,227.072006 
	C171.853363,233.910873 160.144882,240.853104 148.498993,247.896332 
	C147.389542,248.567322 146.327454,250.236404 146.253235,251.501358 
	C146.113449,253.884125 146.955704,256.309387 146.962524,258.718201 
	C147.026779,281.379272 147.058304,304.040924 146.930588,326.701447 
	C146.913834,329.672485 147.520401,331.522552 150.361374,332.933746 
	C155.135162,335.304993 159.667114,338.162415 164.305527,340.807007 
	C180.597809,350.096069 196.829559,359.495544 213.268082,368.518280 
	C215.232498,369.596497 218.832260,369.539001 220.819107,368.449280 
	C242.055511,356.801453 263.135376,344.867218 284.190338,332.892303 
	C285.423615,332.190887 286.854919,330.475555 286.874176,329.211975 
	C287.071106,316.269287 286.994781,303.322479 286.994781,290.208984 
	C279.107910,290.208984 271.682281,290.208984 263.000610,290.208984 
	C263.000610,297.635681 262.931671,304.857697 263.038452,312.077148 
	C263.075256,314.566559 262.613556,316.116821 260.096619,317.549011 
	C246.729385,325.155334 233.612854,333.202850 220.227219,340.775330 
	C218.516693,341.742981 215.403900,341.544647 213.524750,340.654114 
	C208.005676,338.038574 202.746155,334.862000 197.448868,331.794830 
	C188.936996,326.866425 180.476364,321.849548 171.982895,315.958038 
	C171.940292,298.274567 171.897690,280.591064 172.227631,262.291962 
M321.645874,83.953094 
	C316.121887,80.631783 310.128601,77.884621 305.189850,73.847359 
	C298.658936,68.508537 293.190521,70.817558 287.221954,74.302895 
	C268.207367,85.406395 249.168488,96.469925 230.032654,107.362091 
	C227.637741,108.725288 226.929947,110.099213 226.940353,112.724388 
	C227.040161,137.877533 227.044022,163.031403 226.942841,188.184525 
	C226.930679,191.208145 227.932541,192.845901 230.618271,194.339264 
	C251.237900,205.804565 271.829346,217.326691 292.219543,229.192032 
	C295.402710,231.044357 297.788116,231.352524 300.734283,229.700775 
	C321.992920,217.782349 343.276672,205.907776 364.438507,193.819778 
	C365.781128,193.052826 366.883270,190.616959 366.892853,188.950607 
	C367.044739,162.470352 366.999725,135.988968 366.999725,109.750641 
	C351.988922,101.101662 337.191010,92.575356 321.645874,83.953094 
M206.999207,119.532417 
	C206.999207,116.207893 206.999207,112.883369 206.999207,109.810577 
	C197.045364,104.149200 187.300919,98.637863 177.586533,93.074066 
	C164.870468,85.791100 152.239929,78.354347 139.403503,71.291069 
	C137.643066,70.322380 134.417587,70.258789 132.700714,71.235573 
	C111.595268,83.243095 90.620956,95.482620 69.709869,107.826706 
	C68.394485,108.603195 67.123558,110.740295 67.114151,112.252380 
	C66.955597,137.737259 66.946503,163.223770 67.119255,188.708466 
	C67.131172,190.467896 68.375046,193.008438 69.822548,193.849960 
	C90.783783,206.035675 111.850739,218.041183 132.994217,229.908417 
	C134.603836,230.811844 137.200180,230.985962 138.955261,230.383850 
	C142.433426,229.190567 145.732620,227.373245 148.950775,225.541519 
	C166.756088,215.406906 184.471024,205.112625 202.327774,195.070145 
	C205.730270,193.156616 207.151642,191.065521 207.109024,186.985931 
	C206.877640,164.833969 206.999207,142.678314 206.999207,119.532417 
z"/>
<path fill="#FFCF80" opacity="1.000000" stroke="none" 
	d="
M322.019470,84.001068 
	C337.191010,92.575356 351.988922,101.101662 366.999725,109.750641 
	C366.999725,135.988968 367.044739,162.470352 366.892853,188.950607 
	C366.883270,190.616959 365.781128,193.052826 364.438507,193.819778 
	C343.276672,205.907776 321.992920,217.782349 300.734283,229.700775 
	C297.788116,231.352524 295.402710,231.044357 292.219543,229.192032 
	C271.829346,217.326691 251.237900,205.804565 230.618271,194.339264 
	C227.932541,192.845901 226.930679,191.208145 226.942841,188.184525 
	C227.044022,163.031403 227.040161,137.877533 226.940353,112.724388 
	C226.929947,110.099213 227.637741,108.725288 230.032654,107.362091 
	C249.168488,96.469925 268.207367,85.406395 287.221954,74.302895 
	C293.190521,70.817558 298.658936,68.508537 305.189850,73.847359 
	C310.128601,77.884621 316.121887,80.631783 322.019470,84.001068 
z"/>
<path fill="#FFCF81" opacity="1.000000" stroke="none" 
	d="
M206.999222,120.028183 
	C206.999207,142.678314 206.877640,164.833969 207.109024,186.985931 
	C207.151642,191.065521 205.730270,193.156616 202.327774,195.070145 
	C184.471024,205.112625 166.756088,215.406906 148.950775,225.541519 
	C145.732620,227.373245 142.433426,229.190567 138.955261,230.383850 
	C137.200180,230.985962 134.603836,230.811844 132.994217,229.908417 
	C111.850739,218.041183 90.783783,206.035675 69.822548,193.849960 
	C68.375046,193.008438 67.131172,190.467896 67.119255,188.708466 
	C66.946503,163.223770 66.955597,137.737259 67.114151,112.252380 
	C67.123558,110.740295 68.394485,108.603195 69.709869,107.826706 
	C90.620956,95.482620 111.595268,83.243095 132.700714,71.235573 
	C134.417587,70.258789 137.643066,70.322380 139.403503,71.291069 
	C152.239929,78.354347 164.870468,85.791100 177.586533,93.074066 
	C187.300919,98.637863 197.045364,104.149200 206.999207,109.810577 
	C206.999207,112.883369 206.999207,116.207893 206.999222,120.028183 
M91.176529,177.655289 
	C104.338959,185.411240 117.491455,193.184128 130.671005,200.910873 
	C133.849899,202.774551 136.741913,203.499084 140.524399,201.248001 
	C153.156693,193.730011 166.042038,186.630417 178.936371,179.563858 
	C182.539139,177.589386 183.613739,174.882812 183.056808,170.169357 
	C183.067337,156.059708 183.109680,141.949921 183.043274,127.840637 
	C183.035980,126.288979 182.405243,124.740250 181.333588,123.022400 
	C180.169037,122.467484 178.961151,121.987823 177.846573,121.346100 
	C165.229156,114.081627 152.676941,106.700737 139.952744,99.629059 
	C138.413895,98.773804 135.563583,98.823929 134.003738,99.687485 
	C119.608536,107.656830 105.363617,115.897629 90.415405,124.568344 
	C90.313728,141.628906 90.206741,158.689453 90.141495,175.750153 
	C90.139885,176.170395 90.601257,176.592392 91.176529,177.655289 
z"/>
<path fill="#FFCF81" opacity="1.000000" stroke="none" 
	d="
M171.994080,316.870056 
	C180.476364,321.849548 188.936996,326.866425 197.448868,331.794830 
	C202.746155,334.862000 208.005676,338.038574 213.524750,340.654114 
	C215.403900,341.544647 218.516693,341.742981 220.227219,340.775330 
	C233.612854,333.202850 246.729385,325.155334 260.096619,317.549011 
	C262.613556,316.116821 263.075256,314.566559 263.038452,312.077148 
	C262.931671,304.857697 263.000610,297.635681 263.000610,290.208984 
	C271.682281,290.208984 279.107910,290.208984 286.994781,290.208984 
	C286.994781,303.322479 287.071106,316.269287 286.874176,329.211975 
	C286.854919,330.475555 285.423615,332.190887 284.190338,332.892303 
	C263.135376,344.867218 242.055511,356.801453 220.819107,368.449280 
	C218.832260,369.539001 215.232498,369.596497 213.268082,368.518280 
	C196.829559,359.495544 180.597809,350.096069 164.305527,340.807007 
	C159.667114,338.162415 155.135162,335.304993 150.361374,332.933746 
	C147.520401,331.522552 146.913834,329.672485 146.930588,326.701447 
	C147.058304,304.040924 147.026779,281.379272 146.962524,258.718201 
	C146.955704,256.309387 146.113449,253.884125 146.253235,251.501358 
	C146.327454,250.236404 147.389542,248.567322 148.498993,247.896332 
	C160.144882,240.853104 171.853363,233.910873 183.620834,227.072006 
	C192.568909,221.871674 201.874817,217.243378 210.547119,211.627914 
	C216.117294,208.021149 220.390030,209.784683 225.147736,212.569077 
	C240.866089,221.768066 256.638916,230.873978 272.379242,240.035507 
	C276.700165,242.550476 281.104523,244.958298 285.186432,247.820541 
	C286.123047,248.477280 286.629059,251.176682 286.066620,252.304260 
	C283.055725,258.340515 279.643738,264.176697 276.086487,270.594177 
	C269.761597,266.982117 263.587646,263.507385 257.462952,259.947937 
	C244.579468,252.460510 231.748566,244.881622 218.797913,237.512848 
	C217.860840,236.979660 215.924713,237.479691 214.799225,238.113754 
	C205.083252,243.587448 195.460144,249.225571 185.780655,254.764572 
	C181.295776,257.331024 176.747284,259.786285 171.746735,262.910095 
	C171.181061,280.592529 171.084213,297.656769 171.053482,314.721161 
	C171.052185,315.436890 171.666534,316.153748 171.994080,316.870056 
z"/>
<path fill="#FFFFFE" opacity="1.000000" stroke="none" 
	d="
M171.988495,316.414062 
	C171.666534,316.153748 171.052185,315.436890 171.053482,314.721161 
	C171.084213,297.656769 171.181061,280.592529 171.560471,263.217896 
	C171.897690,280.591064 171.940292,298.274567 171.988495,316.414062 
z"/>
<path fill="#000000" opacity="1.000000" stroke="none" 
	d="
M91.074997,124.059494 
	C105.363617,115.897629 119.608536,107.656830 134.003738,99.687485 
	C135.563583,98.823929 138.413895,98.773804 139.952744,99.629059 
	C152.676941,106.700737 165.229156,114.081627 177.846573,121.346100 
	C178.961151,121.987823 180.169037,122.467484 181.679169,123.554329 
	C182.016129,138.436554 181.982117,152.786972 182.040939,167.136993 
	C182.046387,168.465027 182.642120,169.790649 182.963760,171.117386 
	C183.613739,174.882812 182.539139,177.589386 178.936371,179.563858 
	C166.042038,186.630417 153.156693,193.730011 140.524399,201.248001 
	C136.741913,203.499084 133.849899,202.774551 130.671005,200.910873 
	C117.491455,193.184128 104.338959,185.411240 91.081558,176.867142 
	C91.016060,158.739166 91.045525,141.399323 91.074997,124.059494 
z"/>
<path fill="#FFE6C2" opacity="1.000000" stroke="none" 
	d="
M90.745201,124.313919 
	C91.045525,141.399323 91.016060,158.739166 90.916641,176.546295 
	C90.601257,176.592392 90.139885,176.170395 90.141495,175.750153 
	C90.206741,158.689453 90.313728,141.628906 90.745201,124.313919 
z"/>
<path fill="#FFFEFE" opacity="1.000000" stroke="none" 
	d="
M183.010284,170.643372 
	C182.642120,169.790649 182.046387,168.465027 182.040939,167.136993 
	C181.982117,152.786972 182.016129,138.436554 182.044220,123.638214 
	C182.405243,124.740250 183.035980,126.288979 183.043274,127.840637 
	C183.109680,141.949921 183.067337,156.059708 183.010284,170.643372 
z"/>
</svg>